<svg height="640pt" viewBox="-20 -100 640 640" width="640pt" xmlns="http://www.w3.org/2000/svg"><path d="m247 236.003906-43.296875-25 25-43.296875c2.710937-4.777343 1.0625-10.851562-3.699219-13.601562-4.761718-2.75-10.84375-1.144531-13.621094 3.601562l-25 43.296875-43.300781-25c-3.097656-1.8125-6.929687-1.832031-10.039062-.042968-3.113281 1.785156-5.03125 5.105468-5.019531 8.695312.007812 3.589844 1.9375 6.894531 5.058593 8.671875l43.300781 25-25 43.296875c-2.71875 4.78125-1.070312 10.855469 3.691407 13.601562 4.761719 2.75 10.84375 1.144532 13.628906-3.601562l25-43.296875 43.296875 25c4.777344 2.714844 10.855469 1.066406 13.601562-3.695313 2.75-4.761718 1.140626-10.84375-3.601562-13.628906zm0 0"/><path d="m410-5.332031c-80.078125.441406-151.871094 49.464843-181.429688 123.890625-12.695312-2.582032-25.617187-3.886719-38.570312-3.890625-108.75 0-190 89.75-190 170 0 57.996093 6.191406 116.515625 80.121094 139.558593 23.207031 7.230469 88.878906 10.441407 109.878906 10.441407s86.660156-3.210938 109.859375-10.441407c61.570313-19.179687 76.121094-63.003906 79.289063-110.5625 13.101562.722657 24.171874 1.003907 30.851562 1.003907 21.089844 0 86.832031-3.21875 109.867188-10.449219 73.941406-22.980469 80.132812-81.554688 80.132812-139.550781 0-80.25-81.25-170-190-170zm-116.078125 410.46875c-18.691406 5.820312-78.75 9.53125-103.921875 9.53125s-85.25-3.722657-103.941406-9.542969c-55.527344-17.308594-66.058594-55.679688-66.058594-120.457031 0-69.371094 74.257812-150 170-150s170 80.628906 170 150c0 64.777343-10.53125 103.15625-66.078125 120.46875zm220-120c-18.570313 5.808593-78.683594 9.53125-103.921875 9.53125-6.46875 0-17.261719-.28125-30.070312-1.003907 0-2.996093.070312-6 .070312-8.996093 0-65.183594-53.609375-136.632813-132-161.164063 27.097656-65.640625 90.988281-108.5625 162-108.835937 95.742188 0 170 80.628906 170 150 0 64.796875-10.53125 103.1875-66.097656 120.457031zm0 0"/><path d="m467 116.003906-43.296875-25 25-43.296875c1.808594-3.09375 1.828125-6.925781.042969-10.039062-1.789063-3.109375-5.109375-5.027344-8.699219-5.019531-3.582031.007812-6.890625 1.941406-8.664063 5.058593l-25 43.296875-43.300781-25c-3.097656-1.8125-6.929687-1.832031-10.039062-.042968-3.113281 1.785156-5.03125 5.105468-5.019531 8.695312.007812 3.589844 1.9375 6.894531 5.058593 8.671875l43.300781 25-25 43.296875c-2.71875 4.78125-1.070312 10.855469 3.691407 13.601562 4.761719 2.75 10.84375 1.144532 13.628906-3.601562l25-43.296875 43.296875 25c4.777344 2.714844 10.855469 1.066406 13.601562-3.695313 2.75-4.761718 1.140626-10.84375-3.601562-13.628906zm0 0"/></svg>