<?xml version="1.0" encoding="utf-8"?>
<!-- Generator: Adobe Illustrator 22.1.0, SVG Export Plug-In . SVG Version: 6.00 Build 0)  -->
<svg version="1.1" id="Layer_1" xmlns="http://www.w3.org/2000/svg" xmlns:xlink="http://www.w3.org/1999/xlink" x="0px" y="0px"
	 viewBox="0 0 52 52.2" style="enable-background:new 0 0 52 52.2;" xml:space="preserve">
<g>
	<g>
		<g>
			<path d="M29.5,46.6c-0.2,0-0.4-0.1-0.6-0.2l-4.2-2.8c-0.2-0.2-0.4-0.4-0.4-0.7c0-0.3,0.1-0.6,0.3-0.8c7.9-8.4,14.6-18.6,20-30.4
				c0.1-0.3,0.4-0.5,0.6-0.5c0.3-0.1,0.6,0,0.8,0.1l4.2,2.8c0.4,0.3,0.6,0.8,0.4,1.2c-5.4,12-12.3,22.4-20.4,30.9
				C30.1,46.4,29.8,46.6,29.5,46.6z M26.9,42.6l2.5,1.6c7.6-8,14-17.8,19.1-29L46,13.6C40.8,24.7,34.4,34.5,26.9,42.6z"/>
		</g>
		<g>
			<path d="M25.4,43.8c-0.2,0-0.4-0.1-0.6-0.2L9.9,33.7c-0.2-0.2-0.4-0.4-0.4-0.7c0-0.3,0.1-0.6,0.3-0.8c8.4-8.9,15.1-19.1,20-30.3
				c0.1-0.3,0.4-0.5,0.6-0.6c0.3-0.1,0.6,0,0.8,0.1l14.9,9.9c0.4,0.3,0.6,0.8,0.4,1.2c-5.5,12-12.4,22.4-20.4,30.9
				C25.9,43.7,25.6,43.8,25.4,43.8z M12,32.7l13.2,8.8c7.5-8.1,13.9-17.8,19.1-29L31.1,3.7C26.3,14.4,19.9,24.1,12,32.7z"/>
		</g>
		<g>
			<path d="M7.7,50.8c-0.4,0-0.9-0.1-1.2-0.4l-4.2-2.8c-1-0.7-1.3-2.1-0.6-3.1l8-12.2c0.1-0.2,0.4-0.4,0.6-0.4c0.3,0,0.5,0,0.8,0.1
				l6.3,4.2c0.5,0.3,0.6,0.9,0.3,1.4l-8,12.2c-0.3,0.5-0.8,0.8-1.4,1C8,50.7,7.8,50.8,7.7,50.8z M10.8,34.3L3.3,45.6
				c-0.1,0.1,0,0.2,0.1,0.3l4.2,2.8c0.1,0,0.1,0,0.2,0c0,0,0.1,0,0.1-0.1l7.5-11.3L10.8,34.3z"/>
		</g>
	</g>
	<g>
		<path d="M33.8,15.5c-0.6,0-1.3-0.2-1.8-0.6c-1.5-1-1.9-3.1-0.9-4.6c0.5-0.7,1.2-1.2,2.1-1.4c0.9-0.2,1.8,0,2.5,0.5l0,0
			c1.5,1,1.9,3.1,0.9,4.6c-0.5,0.7-1.2,1.2-2.1,1.4C34.3,15.5,34,15.5,33.8,15.5z M33.8,10.9c-0.1,0-0.2,0-0.3,0
			c-0.3,0.1-0.6,0.3-0.8,0.6c-0.4,0.6-0.2,1.4,0.4,1.8c0.3,0.2,0.6,0.3,1,0.2c0.3-0.1,0.6-0.3,0.8-0.6c0.4-0.6,0.2-1.4-0.4-1.8
			C34.3,10.9,34.1,10.9,33.8,10.9z"/>
	</g>
</g>
</svg>
