<svg height="480pt" viewBox="-128 0 480 480" width="480pt" xmlns="http://www.w3.org/2000/svg"><path d="m192 336.800781v-13.488281l29.65625-29.65625c2.285156-2.289062 2.972656-5.730469 1.734375-8.71875s-4.15625-4.9375-7.390625-4.9375h-12.6875l18.34375-18.34375c2.285156-2.289062 2.972656-5.730469 1.734375-8.71875s-4.15625-4.9375-7.390625-4.9375h-12.6875l18.34375-18.34375c2.285156-2.289062 2.972656-5.730469 1.734375-8.71875s-4.15625-4.9375-7.390625-4.9375h-12.6875l18.34375-18.34375c2.285156-2.289062 2.972656-5.730469 1.734375-8.71875s-4.15625-4.9375-7.390625-4.9375h-12.6875l18.34375-18.34375c2.285156-2.289062 2.972656-5.730469 1.734375-8.71875s-4.15625-4.9375-7.390625-4.9375h-12.6875l18.34375-18.34375c2.285156-2.289062 2.972656-5.730469 1.734375-8.71875s-4.15625-4.9375-7.390625-4.9375h-12.6875l18.34375-18.34375c2.285156-2.289062 2.972656-5.730469 1.734375-8.71875s-4.15625-4.9375-7.390625-4.9375h-12.6875l18.34375-18.34375c2.285156-2.289062 2.972656-5.730469 1.734375-8.71875s-4.15625-4.9375-7.390625-4.9375h-12.6875l18.34375-18.34375c2.285156-2.289062 2.972656-5.730469 1.734375-8.71875s-4.15625-4.9375-7.390625-4.9375h-24v-16c0-4.417969-3.582031-8-8-8h-160c-4.417969 0-8 3.582031-8 8v329.472656c-9.554688 3.378906-15.9570312 12.394532-16 22.527344v112c0 4.417969 3.582031 8 8 8h208c4.417969 0 8-3.582031 8-8v-96c-.023438-19-13.386719-35.371094-32-39.199219zm-160-320.800781h144v16c0 4.417969 3.582031 8 8 8h12.6875l-18.34375 18.34375c-1.886719 1.890625-2.703125 4.597656-2.179688 7.214844.519532 2.617187 2.3125 4.804687 4.78125 5.824218.96875.402344 2.003907.613282 3.054688.617188h12.6875l-18.34375 18.34375c-1.886719 1.890625-2.703125 4.597656-2.179688 7.214844.519532 2.617187 2.3125 4.804687 4.78125 5.824218.96875.402344 2.003907.613282 3.054688.617188h12.6875l-18.34375 18.34375c-1.886719 1.890625-2.703125 4.597656-2.179688 7.214844.519532 2.617187 2.3125 4.804687 4.78125 5.824218.96875.402344 2.003907.613282 3.054688.617188h12.6875l-18.34375 18.34375c-1.886719 1.890625-2.703125 4.597656-2.179688 7.214844.519532 2.617187 2.3125 4.804687 4.78125 5.824218.96875.402344 2.003907.613282 3.054688.617188h12.6875l-18.34375 18.34375c-1.886719 1.890625-2.703125 4.597656-2.179688 7.214844.519532 2.617187 2.3125 4.804687 4.78125 5.824218.96875.402344 2.003907.613282 3.054688.617188h12.6875l-18.34375 18.34375c-1.886719 1.890625-2.703125 4.597656-2.179688 7.214844.519532 2.617187 2.3125 4.804687 4.78125 5.824218.96875.402344 2.003907.613282 3.054688.617188h12.6875l-18.34375 18.34375c-1.886719 1.890625-2.703125 4.597656-2.179688 7.214844.519532 2.617187 2.3125 4.804687 4.78125 5.824218.96875.402344 2.003907.613282 3.054688.617188h12.6875l-18.34375 18.34375c-1.886719 1.890625-2.703125 4.597656-2.179688 7.214844.519532 2.617187 2.3125 4.804687 4.78125 5.824218.96875.402344 2.003907.613282 3.054688.617188h12.6875l-18.34375 18.34375c-.742188.746094-1.328125 1.628906-1.726562 2.601562-.402344.96875-.613282 2.003907-.617188 3.054688v16h-144zm176 448h-192v-104c0-4.417969 3.582031-8 8-8h160c13.253906 0 24 10.746094 24 24zm0 0"/><path d="m187.777344 368.945312c-2.605469-1.394531-5.761719-1.242187-8.21875.398438l-21.957032 14.65625h-91.203124l-21.984376-14.65625c-2.453124-1.625-5.601562-1.769531-8.195312-.378906s-4.214844 4.09375-4.21875 7.035156v64c0 4.417969 3.582031 8 8 8h144c4.417969 0 8-3.582031 8-8v-64c0-2.949219-1.621094-5.664062-4.222656-7.054688zm-11.777344 63.054688h-128v-41.046875l11.558594 7.703125c1.316406.875 2.863281 1.339844 4.441406 1.34375h96c1.578125-.003906 3.125-.46875 4.441406-1.34375l11.558594-7.703125zm0 0"/><path d="m64 24c-13.253906 0-24 10.746094-24 24s10.746094 24 24 24 24-10.746094 24-24-10.746094-24-24-24zm0 32c-4.417969 0-8-3.582031-8-8s3.582031-8 8-8 8 3.582031 8 8-3.582031 8-8 8zm0 0"/></svg>