<svg xmlns="http://www.w3.org/2000/svg" xmlns:xlink="http://www.w3.org/1999/xlink" version="1.2" baseProfile="tiny" x="0px" y="0px" viewBox="0 0 100 125" xml:space="preserve"><g><path d="M98,95.9H76.1c-0.6-2.8-3.1-5-6.1-5c-0.7,0-1.5,0.1-2.1,0.4c-0.4-3-3-5.4-6.2-5.4c-0.7,0-1.5,0.1-2.1,0.4   c-0.3-2-1.6-3.8-3.4-4.7c0.1-0.4,0.1-0.7,0.1-1.1c0-2.3-1.2-4.3-3.1-5.4c0.3-1.3,0.9-3.6,2.2-6.3c0.7,0.5,1.4,0.9,2.2,1.2   c1.1,0.4,2.2,0.6,3.3,0.6c1.3,0,2.5-0.3,3.7-0.8c2.6-1.2,4.6-3.6,5.2-6.4l0,0c2.1-7.4,10.9-9.3,11-9.4c0.6-0.1,1-0.6,1-1.2   s-0.4-1.1-1-1.2c-0.5-0.1-13.1-3.1-23.6,1.6c-0.1,0-0.1,0.1-0.2,0.1c-0.2-2.6-1.3-5-3.2-7C43.4,36,27.3,33.8,26.6,33.7   c-0.6-0.1-1.1,0.3-1.3,0.8s0,1.2,0.5,1.5c0.1,0.1,9.9,6.5,8.9,16.5c0,0,0,0,0,0.1c-0.6,3.5,0.6,7.2,3.2,9.7c2.2,2.2,5.1,3.3,8,3.3   c1.2,0,2.3-0.2,3.5-0.6c0.5,4.3,0,7.8-0.3,9.4c-3,0.5-5.2,3.1-5.2,6.2c0,0.2,0,0.4,0,0.5c-2.6,0.5-4.6,2.6-5,5.3   c-0.7-0.2-1.4-0.4-2.1-0.4c-3,0-5.6,2.2-6.1,5c-3.2-0.3-6,2-6.7,5H2c-0.7,0-1.2,0.6-1.2,1.2s0.6,1.2,1.2,1.2h23   c0.7,0,1.2-0.6,1.2-1.2c0-2.1,1.7-3.8,3.8-3.8c0.4,0,0.8,0.1,1.3,0.2c0.4,0.1,0.8,0.1,1.2-0.2c0.3-0.3,0.5-0.7,0.5-1.1   c0-0.1,0-0.1,0-0.2c0-2.1,1.7-3.8,3.8-3.8c1,0,2,0.4,2.7,1.2c0.4,0.4,1,0.5,1.5,0.2s0.7-0.9,0.5-1.5c-0.1-0.4-0.2-0.8-0.2-1.2   c0-2.1,1.7-3.7,3.8-3.7l0,0c0.1,0,0.1,0,0.2,0c0.4,0,0.8-0.2,1.1-0.5s0.3-0.8,0.2-1.2c-0.2-0.4-0.2-0.9-0.2-1.3   c0-2.1,1.7-3.8,3.8-3.8c0.4,0,0.7,0.1,1,0.2c0.2,0.1,0.4,0.2,0.6,0.3c0,0,0,0,0.1,0c1.2,0.6,2.1,1.9,2.1,3.3c0,0.5-0.1,0.9-0.3,1.4   c-0.1,0.3-0.1,0.7,0,1c0.2,0.3,0.4,0.6,0.8,0.6c1.6,0.4,2.8,1.9,2.8,3.6c0,0.4-0.1,0.7-0.2,1.2c-0.2,0.6,0,1.2,0.5,1.5   s1.1,0.2,1.5-0.2c0.7-0.7,1.7-1.2,2.7-1.2c2.1,0,3.8,1.7,3.8,3.8c0,0.4-0.1,0.7-0.2,1.2c-0.2,0.6,0,1.2,0.5,1.5s1.1,0.2,1.5-0.2   c0.7-0.7,1.7-1.2,2.7-1.2c2.1,0,3.8,1.7,3.8,3.8c0,0.7,0.6,1.2,1.2,1.2h23c0.7,0,1.2-0.6,1.2-1.2S98.7,95.9,98,95.9z M58.2,55.5   c6-2.7,13-2.6,17.4-2.2c-3.1,1.6-6.8,4.4-8.2,9.3c0,0.1,0,0.1-0.1,0.2c-0.4,2.1-1.8,3.9-3.8,4.7c-1.6,0.7-3.4,0.8-5.1,0.1   c-0.7-0.3-1.3-0.6-1.8-1.1c1.9-3,4.9-6.1,9.3-8c0.6-0.3,0.9-1,0.6-1.6s-1-0.9-1.6-0.6c-4.6,2.1-7.8,5.1-9.9,8.2   c-0.1-0.1-0.1-0.2-0.2-0.3c-0.4-0.8-0.5-1.7-0.6-2.5c1.4-1.6,2.3-3.4,2.6-5.4C57.3,56,57.7,55.7,58.2,55.5z M51.2,61.1   c-1.1-4.8-3.4-10-8.1-14.7c-0.5-0.5-1.3-0.5-1.8,0s-0.5,1.3,0,1.8c4.5,4.5,6.6,9.7,7.5,14.3c-1,0.4-2,0.6-3.1,0.6   c-2.3,0-4.5-0.9-6.2-2.6c-2-2-2.9-4.9-2.4-7.7c0-0.1,0-0.2,0-0.2c0.6-6.9-3.1-12.3-6.2-15.4c5.5,1.4,14.6,4.5,21,10.9   c1.7,1.7,2.6,3.9,2.6,6.2s-0.9,4.5-2.6,6.2C51.7,60.7,51.5,60.9,51.2,61.1z M52,70.2c0.1-1.8,0-4-0.3-6.4c0.1-0.1,0.2-0.1,0.3-0.2   c0.1,0.5,0.3,1.1,0.5,1.6c0.3,0.6,0.6,1.2,1,1.7C52.9,68.1,52.4,69.2,52,70.2z"/><path d="M50,32.4c5.7,0,9.2-2.9,9.2-7.6c0-11.8-7.9-22.2-8.3-22.6c-0.5-0.6-1.5-0.6-2,0c-0.3,0.4-8.3,10.9-8.3,22.6   C40.8,29.4,44.3,32.4,50,32.4z M50,5c2.1,3.2,6.8,11.2,6.8,19.7c0,4.6-4.7,5.1-6.8,5.1s-6.8-0.5-6.8-5.1C43.2,16.2,47.9,8.2,50,5z"/></g></svg>