<svg xmlns="http://www.w3.org/2000/svg" xmlns:xlink="http://www.w3.org/1999/xlink" version="1.1" x="0px" y="0px" viewBox="0 0 64 80" enable-background="new 0 0 64 64" xml:space="preserve"><g><g><g><g><path d="M48,46.002c-0.553,0-1-0.447-1-1c0-2.206-1.794-4-4-4c-0.553,0-1-0.447-1-1s0.447-1,1-1c3.309,0,6,2.691,6,6      C49,45.555,48.553,46.002,48,46.002z"/></g><g><path d="M43,41.023c-0.001,0-0.003,0-0.004,0l-6-0.023c-0.553-0.002-0.998-0.451-0.996-1.004C36.002,39.445,36.449,39,37,39      c0.001,0,0.003,0,0.004,0l6,0.023c0.553,0.002,0.998,0.451,0.996,1.004C43.998,40.578,43.551,41.023,43,41.023z"/></g><g><path d="M45,53c-0.132,0-0.266-0.025-0.394-0.081c-0.508-0.218-0.743-0.806-0.525-1.313l3-7      c0.218-0.509,0.808-0.745,1.313-0.525c0.508,0.218,0.743,0.806,0.525,1.313l-3,7C45.757,52.773,45.388,53,45,53z"/></g></g><g><g><path d="M16,46.002c-0.553,0-1-0.447-1-1c0-3.309,2.691-6,6-6c0.553,0,1,0.447,1,1s-0.447,1-1,1c-2.206,0-4,1.794-4,4      C17,45.555,16.553,46.002,16,46.002z"/></g><g><path d="M21,41.023c-0.551,0-0.998-0.445-1-0.996c-0.002-0.553,0.443-1.002,0.996-1.004l6-0.023c0.001,0,0.003,0,0.004,0      c0.551,0,0.998,0.445,1,0.996c0.002,0.553-0.443,1.002-0.996,1.004l-6,0.023C21.003,41.023,21.001,41.023,21,41.023z"/></g><g><path d="M19,53c-0.388,0-0.757-0.227-0.919-0.606l-3-7c-0.218-0.507,0.018-1.095,0.525-1.313      c0.504-0.221,1.095,0.016,1.313,0.525l3,7c0.218,0.507-0.018,1.095-0.525,1.313C19.266,52.975,19.132,53,19,53z"/></g></g><g><path d="M45,53.02C45,53.02,45,53.02,45,53.02L18.999,53C18.447,53,18,52.552,18,51.999C18,51.447,18.448,51,19,51     c0,0,0,0,0.001,0l26,0.02c0.552,0,0.999,0.448,0.999,1.001C46,52.572,45.552,53.02,45,53.02z"/></g><g><path d="M27,41c-0.553,0-1-0.447-1-1v-3.92c0-0.553,0.447-1,1-1s1,0.447,1,1V40C28,40.553,27.553,41,27,41z"/></g><g><path d="M37,41c-0.553,0-1-0.447-1-1v-3.92c0-0.553,0.447-1,1-1s1,0.447,1,1V40C38,40.553,37.553,41,37,41z"/></g><g><path d="M32,38c-8.271,0-15-6.729-15-15c0-0.553,0.447-1,1-1s1,0.447,1,1c0,7.168,5.832,13,13,13s13-5.832,13-13     c0-0.553,0.447-1,1-1s1,0.447,1,1C47,31.271,40.271,38,32,38z"/></g><g><path d="M48,18.002c-0.553,0-1-0.447-1-1C47,8.729,40.271,2,32,2S17,8.729,17,17.002c0,0.553-0.447,1-1,1s-1-0.447-1-1     C15,7.627,22.626,0,32,0s17,7.627,17,17.002C49,17.555,48.553,18.002,48,18.002z"/></g><g><g><path d="M48,26c-0.553,0-1-0.447-1-1s0.447-1,1-1c0.552,0,1-0.449,1-1.001s-0.448-1-1-1c-0.553,0-1-0.447-1-1s0.447-1,1-1      c1.654,0,3,1.346,3,3S49.654,26,48,26z"/></g><g><path d="M48,22.001c-0.553,0-1-0.447-1-1s0.447-1,1-1c0.552,0,1-0.449,1-1.001s-0.448-1-1-1c-0.553,0-1-0.447-1-1s0.447-1,1-1      c1.654,0,3,1.346,3,3S49.654,22.001,48,22.001z"/></g><g><path d="M48,30c-0.553,0-1-0.447-1-1s0.447-1,1-1c0.552,0,1-0.449,1-1.001s-0.448-1-1-1c-0.553,0-1-0.447-1-1s0.447-1,1-1      c1.654,0,3,1.346,3,3S49.654,30,48,30z"/></g><g><path d="M48,30h-3.348c-0.553,0-1-0.447-1-1s0.447-1,1-1H48c0.553,0,1,0.447,1,1S48.553,30,48,30z"/></g></g><g><g><path d="M16,26c-1.654,0-3-1.347-3-3.001s1.346-3,3-3c0.553,0,1,0.447,1,1s-0.447,1-1,1c-0.552,0-1,0.448-1,1S15.448,24,16,24      c0.553,0,1,0.447,1,1S16.553,26,16,26z"/></g><g><path d="M16,22.001c-1.654,0-3-1.347-3-3.001s1.346-3,3-3c0.553,0,1,0.447,1,1s-0.447,1-1,1c-0.552,0-1,0.448-1,1      s0.448,1.001,1,1.001c0.553,0,1,0.447,1,1S16.553,22.001,16,22.001z"/></g><g><path d="M16,30c-1.654,0-3-1.347-3-3.001s1.346-3,3-3c0.553,0,1,0.447,1,1s-0.447,1-1,1c-0.552,0-1,0.448-1,1S15.448,28,16,28      c0.553,0,1,0.447,1,1S16.553,30,16,30z"/></g><g><path d="M19.348,30H16c-0.553,0-1-0.447-1-1s0.447-1,1-1h3.348c0.553,0,1,0.447,1,1S19.9,30,19.348,30z"/></g></g><g><path d="M24.002,53.02c-0.305,0-0.604-0.138-0.801-0.4c-0.332-0.441-0.242-1.068,0.2-1.399L39.4,39.224     c0.441-0.332,1.068-0.243,1.399,0.2c0.332,0.441,0.242,1.068-0.2,1.399L24.601,52.819C24.421,52.954,24.211,53.02,24.002,53.02z"/></g><g><path d="M31.999,47.021c-0.209,0-0.419-0.065-0.599-0.2l-7.999-5.998c-0.442-0.331-0.532-0.958-0.2-1.399     c0.332-0.442,0.958-0.53,1.399-0.2l7.999,5.998c0.442,0.331,0.532,0.958,0.2,1.399C32.604,46.884,32.304,47.021,31.999,47.021z"/></g><g><g><path d="M46,24c-0.553,0-1-0.447-1-1v-1.999c0-0.553,0.447-1,1-1s1,0.447,1,1V23C47,23.553,46.553,24,46,24z"/></g><g><path d="M45,22.001c-1.654,0-3-1.347-3-3.001s1.346-3,3-3c0.553,0,1,0.447,1,1s-0.447,1-1,1c-0.552,0-1,0.448-1,1      s0.448,1.001,1,1.001c0.553,0,1,0.447,1,1S45.553,22.001,45,22.001z"/></g><g><path d="M43,18.001c-1.654,0-3-1.347-3-3.001s1.346-3,3-3c0.553,0,1,0.447,1,1s-0.447,1-1,1c-0.552,0-1,0.448-1,1      s0.448,1.001,1,1.001c0.553,0,1,0.447,1,1S43.553,18.001,43,18.001z"/></g><g><path d="M37,12h-3c-0.553,0-1-0.447-1-1s0.447-1,1-1h3c0.553,0,1,0.447,1,1S37.553,12,37,12z"/></g><g><path d="M34,12c-1.654,0-3-1.346-3-3c0-0.553,0.447-1,1-1s1,0.447,1,1c0,0.552,0.448,1,1,1c0.553,0,1,0.447,1,1S34.553,12,34,12      z"/></g><g><path d="M46,22.001h-1c-0.553,0-1-0.447-1-1s0.447-1,1-1h1c0.553,0,1,0.447,1,1S46.553,22.001,46,22.001z"/></g><g><path d="M45,18h-2c-0.553,0-1-0.447-1-1s0.447-1,1-1h2c0.553,0,1,0.447,1,1S45.553,18,45,18z"/></g><g><path d="M39,14c-1.654,0-3-1.346-3-3c0-0.553,0.447-1,1-1s1,0.447,1,1c0,0.552,0.448,1,1,1c0.553,0,1,0.447,1,1S39.553,14,39,14      z"/></g><g><path d="M43,14h-4c-0.553,0-1-0.447-1-1s0.447-1,1-1h4c0.553,0,1,0.447,1,1S43.553,14,43,14z"/></g></g><g><g><path d="M18,24c-0.553,0-1-0.447-1-1v-1.999c0-0.553,0.447-1,1-1s1,0.447,1,1V23C19,23.553,18.553,24,18,24z"/></g><g><path d="M19,22.001c-0.553,0-1-0.447-1-1s0.447-1,1-1c0.552,0,1-0.449,1-1.001s-0.448-1-1-1c-0.553,0-1-0.447-1-1s0.447-1,1-1      c1.654,0,3,1.346,3,3S20.654,22.001,19,22.001z"/></g><g><path d="M21,18.001c-0.553,0-1-0.447-1-1s0.447-1,1-1c0.552,0,1-0.449,1-1.001s-0.448-1-1-1c-0.553,0-1-0.447-1-1s0.447-1,1-1      c1.654,0,3,1.346,3,3S22.654,18.001,21,18.001z"/></g><g><path d="M30,12h-3c-0.553,0-1-0.447-1-1s0.447-1,1-1h3c0.553,0,1,0.447,1,1S30.553,12,30,12z"/></g><g><path d="M30,12c-0.553,0-1-0.447-1-1s0.447-1,1-1c0.552,0,1-0.448,1-1c0-0.553,0.447-1,1-1s1,0.447,1,1      C33,10.654,31.654,12,30,12z"/></g><g><path d="M19,22.001h-1c-0.553,0-1-0.447-1-1s0.447-1,1-1h1c0.553,0,1,0.447,1,1S19.553,22.001,19,22.001z"/></g><g><path d="M21,18h-2c-0.553,0-1-0.447-1-1s0.447-1,1-1h2c0.553,0,1,0.447,1,1S21.553,18,21,18z"/></g><g><path d="M25,14c-0.553,0-1-0.447-1-1s0.447-1,1-1c0.552,0,1-0.448,1-1c0-0.553,0.447-1,1-1s1,0.447,1,1      C28,12.654,26.654,14,25,14z"/></g><g><path d="M25,14h-4c-0.553,0-1-0.447-1-1s0.447-1,1-1h4c0.553,0,1,0.447,1,1S25.553,14,25,14z"/></g></g><g><path d="M44,64c-0.553,0-1-0.447-1-1v-5H21v5c0,0.553-0.447,1-1,1s-1-0.447-1-1v-6c0-0.553,0.447-1,1-1h24c0.553,0,1,0.447,1,1v6     C45,63.553,44.553,64,44,64z"/></g><g><path d="M21,58c-0.553,0-1-0.447-1-1s0.447-1,1-1c1.103,0,2-0.897,2-2c0-0.553,0.447-1,1-1s1,0.447,1,1     C25,56.206,23.206,58,21,58z"/></g><g><path d="M43,58c-2.206,0-4-1.794-4-4c0-0.553,0.447-1,1-1s1,0.447,1,1c0,1.103,0.897,2,2,2c0.553,0,1,0.447,1,1S43.553,58,43,58z     "/></g><g><path d="M40,55c-0.553,0-1-0.447-1-1v-1.98c0-0.553,0.447-1,1-1s1,0.447,1,1V54C41,54.553,40.553,55,40,55z"/></g><g><path d="M24,55c-0.553,0-1-0.447-1-1v-1.98c0-0.553,0.447-1,1-1s1,0.447,1,1V54C25,54.553,24.553,55,24,55z"/></g><g><path d="M46,64H18c-0.553,0-1-0.447-1-1s0.447-1,1-1h28c0.553,0,1,0.447,1,1S46.553,64,46,64z"/></g></g></g><text x="0" y="79" fill="#000000" font-size="5px" font-weight="bold" font-family="'Helvetica Neue', Helvetica, Arial-Unicode, Arial, Sans-serif">Created by lastspark</text><text x="0" y="84" fill="#000000" font-size="5px" font-weight="bold" font-family="'Helvetica Neue', Helvetica, Arial-Unicode, Arial, Sans-serif">from the Noun Project</text></svg>