<?xml version="1.0" encoding="utf-8"?>
<!-- Generator: Adobe Illustrator 23.0.1, SVG Export Plug-In . SVG Version: 6.00 Build 0)  -->
<svg version="1.1" id="Layer_1" xmlns="http://www.w3.org/2000/svg" xmlns:xlink="http://www.w3.org/1999/xlink" x="0px" y="0px"
	 viewBox="0 0 90 90" style="enable-background:new 0 0 90 90;" xml:space="preserve">
<path d="M46,83.7L9,62.8V21.1L46,0.2l37,20.8v41.8L46,83.7z M12,61.1l34,19.2l34-19.2V22.8L46,3.7L12,22.8V61.1z"/>
<rect x="59.2" y="25.4" transform="matrix(0.7482 -0.6635 0.6635 0.7482 -4.2117 47.5947)" width="2.8" height="7.9"/>
<path d="M73.2,32.5L62.7,20H42.8l-7.5,9h-7.8l-9.1,10.5L27.5,50h16.9l4.3-5h13.9L73.2,32.5z M43.1,47H28.9l-3.5-4.1l7.1-8.4
	l-2.2-1.8l-6.8,8.1l-1.1-1.3l6.5-7.5h14.2l6.5,7.5L43.1,47z M51.4,42l2.2-2.5L44.5,29h-5.2l5-6h17l8,9.5l-8,9.5H51.4z"/>
<path d="M65,49H52.9l-6.7,7.5l6.7,7.5H65l6.7-7.5L65,49z M63.6,61h-9.4l-4-4.5l4-4.5h9.4l1.8,2H60v3h7.2L63.6,61z"/>
</svg>
