<svg xmlns="http://www.w3.org/2000/svg" xmlns:xlink="http://www.w3.org/1999/xlink" version="1.1" x="0px" y="0px" viewBox="0 0 100 125" enable-background="new 0 0 100 100" xml:space="preserve"><g><path d="M37.886,66.584v10.333h24.228V66.584H37.886z M59.613,74.417H40.386v-5.333h19.228V74.417z"/><path d="M73.875,91.37v-2.12h9.792v-2.5h-9.792v-3.041h-5.836V59.54h5.836V49.379H60.827l2.877-10.378   c0.031-0.113,0.046-0.23,0.045-0.347c0-0.014-0.005-0.026-0.006-0.041c-0.004-0.101-0.016-0.202-0.044-0.299l-5.24-17.833   c-0.085-0.288-0.27-0.536-0.521-0.698l-17.833-11.5c-0.451-0.291-1.015-0.246-1.421,0.059c-0.047,0.034-0.079,0.083-0.12,0.123   c-0.063,0.063-0.136,0.113-0.186,0.191c-0.009,0.014-0.009,0.029-0.017,0.043c-0.008,0.014-0.022,0.021-0.029,0.034L27.57,28.4   c-0.206,0.377-0.205,0.833,0.004,1.208l11,19.771h-12.45V59.54h5.414v24.169h-5.414v3.041H17v2.5h9.125v2.12H9v2.5h84v-2.5H73.875z    M60.572,36.539l-15.97-6.459l-3.41-18.12l14.999,9.672L60.572,36.539z M38.845,13.001l3.384,17.985l-2.695,14.975l-9.44-16.966   L38.845,13.001z M44.458,32.717l16.54,6.69l-2.765,9.971H41.46L44.458,32.717z M28.625,51.879h42.75v5.161h-42.75V51.879z    M34.039,59.54h31.5v24.169h-31.5V59.54z M71.375,91.37h-42.75v-5.161h42.75V91.37z"/></g><text x="0" y="115" fill="#000000" font-size="5px" font-weight="bold" font-family="'Helvetica Neue', Helvetica, Arial-Unicode, Arial, Sans-serif">Created by Creative Mania</text><text x="0" y="120" fill="#000000" font-size="5px" font-weight="bold" font-family="'Helvetica Neue', Helvetica, Arial-Unicode, Arial, Sans-serif">from the Noun Project</text></svg>