<svg xmlns:dc="http://purl.org/dc/elements/1.1/" xmlns:cc="http://creativecommons.org/ns#" xmlns:rdf="http://www.w3.org/1999/02/22-rdf-syntax-ns#" xmlns:svg="http://www.w3.org/2000/svg" xmlns="http://www.w3.org/2000/svg" xmlns:sodipodi="http://sodipodi.sourceforge.net/DTD/sodipodi-0.dtd" xmlns:inkscape="http://www.inkscape.org/namespaces/inkscape" version="1.1" x="0px" y="0px" viewBox="0 0 100 125"><g transform="translate(0,-952.36218)"><g transform="translate(10.99524,974.33462)"><path d="m 42.803149,0.03543307 c -0.46063,0.03543308 -0.885827,0.21259844 -1.204725,0.53149609 L 8.574803,32.598427 C 8.3622046,32.775592 8.2204723,33.023624 8.1141731,33.271655 L 0.10629921,53.255908 c -0.46062991,1.204724 0.56692912,2.76378 1.87795269,2.76378 l 42.0236211,0 c 0.531496,0 1.098425,-0.248032 1.452756,-0.673229 L 77.492125,21.366143 c 0.531496,-0.566929 0.673228,-1.452756 0.35433,-2.161418 L 69.838581,1.2047245 C 69.519684,0.49606302 68.775589,0.03543307 68.031495,0.03543307 l -25.228346,0 z m 0.992126,3.96850413 19.452755,0 L 61.263778,6.0944885 37.629921,10.02756 z M 67.3937,5.5275593 73.62992,19.594489 44.645668,50.385829 38.338582,35.468506 z m -10.84252,5.4212597 -3.011811,3.118111 -24.23622,4.003937 3.224409,-3.11811 z m -7.724409,7.937009 -1.169292,1.204724 c -8.043307,1.204725 -16.405511,2.657481 -24.555117,4.03937 l 1.240157,-1.204724 c 8.503937,-1.311024 17.149606,-2.799213 24.484252,-4.03937 z m -5.811024,5.988189 -7.901574,8.149607 -21.224409,0 4.3937,-4.251969 c 8.326772,-1.204725 16.653543,-2.551181 24.732283,-3.897638 z m -32.102361,12.153544 23.77559,0 6.307086,14.988189 -36.0708652,0 z" style="" fill="#000000" fill-opacity="1" fill-rule="nonzero" stroke="none"/></g></g></svg>