<?xml version="1.0" encoding="utf-8"?>
<!-- Generator: Adobe Illustrator 22.1.0, SVG Export Plug-In . SVG Version: 6.00 Build 0)  -->
<svg version="1.1" id="Layer_1" xmlns="http://www.w3.org/2000/svg" xmlns:xlink="http://www.w3.org/1999/xlink" x="0px" y="0px"
	 viewBox="0 0 100 97" style="enable-background:new 0 0 100 97;" xml:space="preserve">
<path d="M79.1,58.7c0.7-1.3,0.6-2.9-0.4-4.1l-29-33.7c-1-1.2-2.6-1.5-4-1C45,20,44.3,20,43.8,19.5l-4.3-5c-0.9-1-2.3-1.1-3.3-0.3
	L16.6,31c-1,0.9-1.1,2.3-0.3,3.3c0,0,2.9,3.4,4.4,5.1c0.4,0.5,0.4,1.3,0,1.9c-0.7,1.3-0.6,2.9,0.4,4.1l29,33.7c1,1.2,2.6,1.5,4,1
	c0.6-0.2,1.1-0.6,1.1-0.6s0,0,0,0.1l5.1,6c0.9,1,2.3,1.1,3.3,0.3L83.4,69c1-0.9,1.1-2.3,0.2-3.3l-5.1-6l0,0
	C78.4,59.7,78.8,59.3,79.1,58.7z M44.1,25.6c1.3,0.7,3,1.8,4.6,3.4c0.5,0.5,0.6,1.2,0.3,1.7c-0.3,0.4-1,0.4-1.6,0.1
	c-2.1-1.3-4.5-2.1-6.5-2.6c-0.7-0.2-0.8-0.6-0.3-1.1l1.4-1.2C42.6,25.4,43.5,25.2,44.1,25.6z M46.4,70.9L45.6,70
	c-0.4-0.5-0.3-0.9,0.4-1c3.5-0.1,9,0.1,14.6,1.3c0.7,0.1,0.8,0.6,0.3,1.1l-0.5,0.5c-0.5,0.4-1.5,0.8-2.2,0.7L48.5,72
	C47.8,71.9,46.9,71.5,46.4,70.9z M71,50.9c-0.9,2.7-1.2,5-1.3,6.8c0,0.7-0.5,1-1.2,0.8c-0.2-0.1-0.5-0.2-0.7-0.3
	c-0.6-0.2-1.1-1-1.1-1.6c0.1-2.1,0.5-5.5,1.9-8.4c0.3-0.6,0.9-0.7,1.4-0.2l0.7,0.8C71,49.3,71.2,50.3,71,50.9z M37.4,58.7
	c5.4-1.4,18.1-3.4,32.9,3.2c0.6,0.3,0.7,0.9,0.2,1.3l-0.6,0.5c-0.5,0.4-1.4,0.6-2.1,0.3c-11.7-4.7-23.6-3.4-28.2-2.6
	c-0.7,0.1-1.6-0.2-2-0.7L37,60C36.6,59.5,36.7,58.9,37.4,58.7z M62.4,41.2c-3.2,5.2-4.2,10.1-4.5,13.1c-0.1,0.7-0.6,1.1-1.3,1
	c-0.5-0.1-1.1-0.2-1.6-0.2c-0.7-0.1-1.2-0.7-1.1-1.3c0.4-3.3,1.8-9.6,6.1-15.4c0.4-0.5,1.1-0.6,1.5,0l0.7,0.9
	C62.8,39.7,62.8,40.6,62.4,41.2z M50.1,54.8c-0.5,0-0.9,0-1.4,0c-0.7,0-1.2-0.5-1.1-1.2C48,49.8,49.7,42,56.2,34
	c0.4-0.5,1.1-0.5,1.6,0l0.6,0.6c0.4,0.5,0.4,1.3,0,1.9c-5,6.5-6.5,13.4-6.9,17.1C51.4,54.3,50.8,54.8,50.1,54.8z M42,65.8l-0.9-1.1
	c-0.4-0.5-0.3-1,0.4-1.1c4.9-0.7,14.6-1.3,24.2,2.2c0.6,0.2,0.7,0.8,0.2,1.2L65,67.8c-0.5,0.4-1.5,0.6-2.1,0.5
	c-7.7-1.9-15.5-1.9-18.9-1.7C43.4,66.7,42.5,66.3,42,65.8z M33.7,56.1l-1.1-1.2c-0.4-0.5-0.3-1.1,0.4-1.3c1.5-0.4,3.3-0.9,4.9-1.1
	c0.7-0.1,1.2,0.5,1.2,1.1c0,0.3,0,0.6,0,0.9c0,0.7-0.4,1.3-1.1,1.5c-0.9,0.2-1.7,0.4-2.4,0.6C35,56.9,34.1,56.6,33.7,56.1z M29.3,51
	l-0.7-0.9c-0.4-0.5-0.3-1.2,0.3-1.4c2.2-0.9,5.8-1.9,10.1-1.6c0.7,0,1.1,0.6,0.9,1.3c0,0.1-0.1,0.3-0.1,0.4C39.6,49.5,39,50,38.3,50
	c-2.4,0.2-5.2,0.9-7,1.5C30.6,51.8,29.7,51.5,29.3,51z M25.3,46.4L24,44.9c-0.4-0.5-0.3-1.1,0.4-1.3c3.6-1.3,10.7-3.3,16.6-2
	c0.7,0.1,1,0.8,0.7,1.4c-0.1,0.3-0.2,0.5-0.3,0.8c-0.3,0.6-1,1.1-1.7,1c-5.6-0.5-10.1,1-12.5,2C26.6,47.1,25.7,46.9,25.3,46.4z
	 M43.9,38.6c-0.3,0.6-1.1,0.9-1.8,0.7c-5.7-1.4-12.2,0-16.4,1.3c-0.6,0.2-0.8,0-0.2-0.4l3.4-3c0.5-0.4,1.5-0.9,2.1-1
	c2.5-0.4,7.8-1,12.5,0.6c0.6,0.2,0.9,0.9,0.5,1.5C44,38.3,44,38.5,43.9,38.6L43.9,38.6z M34.3,32.6l2.2-1.9c0.5-0.4,1.5-0.7,2.1-0.6
	c1.9,0.4,5,1.2,7.4,2.7c0.6,0.3,0.8,1.1,0.5,1.5c-0.3,0.5-1,0.6-1.7,0.4c-3.5-1.3-7.3-1.5-10.3-1.3C33.9,33.3,33.8,33,34.3,32.6z
	 M41.5,54.1c-0.1-3.6,1.3-11.6,11.1-24.2c0.4-0.5,1.1-0.5,1.6,0l0.3,0.4c0.4,0.5,0.4,1.3,0,1.9C47,41.1,45.4,49.8,45,53.8
	c-0.1,0.7-0.6,1.3-1.3,1.3c-0.3,0-0.7,0.1-1,0.1C42.2,55.2,41.6,54.8,41.5,54.1z M60.4,54.8c0.2-2.5,1.1-7,3.8-11.6
	c0.3-0.6,1-0.6,1.4-0.1l1,1.2c0.4,0.5,0.5,1.4,0.2,2c-1.7,3.2-2.3,7-2.5,9.6c-0.1,0.7-0.6,1.1-1.2,0.9c-0.5-0.1-1-0.3-1.5-0.4
	C60.8,56.1,60.3,55.5,60.4,54.8z M74,52.8l2.9,3.3c0.4,0.5,0.3,1.2-0.2,1.7l-2.4,2c-0.5,0.4-1.2,0.7-1.6,0.5S72,59.4,72,58.8
	c0-1.4,0.2-3.4,0.8-5.7C73,52.4,73.6,52.3,74,52.8L74,52.8z M61.5,83.1L58,79c-0.4-0.5-0.4-1.3,0.1-1.7l17.6-15.2
	c0.5-0.4,1.3-0.4,1.7,0.1l3.5,4.1c0.4,0.5,0.4,1.3-0.1,1.7L63.2,83.2C62.7,83.7,62,83.6,61.5,83.1z M53.8,77.6
	c-0.5,0.4-1.3,0.4-1.7-0.1l-1.8-2.1c-0.4-0.5-0.3-0.9,0.4-0.8l4.9,0.3c0.7,0,0.8,0.4,0.3,0.9L53.8,77.6z M19.1,31.9l17.6-15.2
	c0.5-0.4,1.3-0.4,1.7,0.1L42,21c0.4,0.5,0.4,1.3-0.1,1.7L24.3,37.9c-0.5,0.4-1.3,0.4-1.7-0.1L19,33.7C18.5,33.2,18.6,32.4,19.1,31.9
	z M46.2,22.3c0.5-0.4,1.3-0.4,1.7,0.1l3.2,3.7c0.4,0.5,0.6,1.1,0.4,1.4c-0.2,0.2-0.7,0-1.2-0.4c-1.4-1.4-2.9-2.4-4.1-3.2
	c-0.6-0.3-0.8-0.8-0.5-1.1C45.9,22.5,46.2,22.3,46.2,22.3z"/>
</svg>
