<svg xmlns="http://www.w3.org/2000/svg" xmlns:xlink="http://www.w3.org/1999/xlink" version="1.1" x="0px" y="0px" viewBox="0 0 64 80" style="enable-background:new 0 0 64 64;" xml:space="preserve"><style type="text/css">
	.st0{display:none;}
	.st1{display:inline;}
	.st2{fill:none;stroke:#B3B3B3;stroke-width:0.1;stroke-miterlimit:10;}
</style><g class="st0"><g class="st1"><rect x="2" y="2" class="st2" width="60" height="60"/><line class="st2" x1="32" y1="2" x2="32" y2="62"/><line class="st2" x1="62" y1="32" x2="2" y2="32"/><line class="st2" x1="2" y1="2" x2="62" y2="62"/><rect x="10" y="10" class="st2" width="44" height="44"/><line class="st2" x1="62" y1="2" x2="2" y2="62"/><line class="st2" x1="2" y1="32" x2="32" y2="2"/><line class="st2" x1="32" y1="2" x2="62" y2="32"/><line class="st2" x1="62" y1="32" x2="32" y2="62"/><line class="st2" x1="32" y1="62" x2="2" y2="32"/><circle class="st2" cx="32" cy="32" r="21"/></g></g><path d="M30,38v-6c1.7,0,3,1.3,3,3h2c0-2.8-2.2-5-5-5v-2h-2v2c-2.8,0-5,2.2-5,5s2.2,5,5,5v6c-1.7,0-3-1.3-3-3h-2c0,2.8,2.2,5,5,5v2  h2v-2c2.8,0,5-2.2,5-5S32.8,38,30,38z M25,35c0-1.7,1.3-3,3-3v6C26.3,38,25,36.7,25,35z M30,46v-6c1.7,0,3,1.3,3,3S31.7,46,30,46z"/><path d="M41,51c-2.2,0-4-1.8-4-4s1.8-4,4-4s4,1.8,4,4S43.2,51,41,51z M41,45c-1.1,0-2,0.9-2,2s0.9,2,2,2s2-0.9,2-2S42.1,45,41,45z"/><path d="M52,60c-2.2,0-4-1.8-4-4s1.8-4,4-4s4,1.8,4,4S54.2,60,52,60z M52,54c-1.1,0-2,0.9-2,2s0.9,2,2,2s2-0.9,2-2S53.1,54,52,54z"/><path d="M38.8,57H11.5c-0.8,0-1.5-0.7-1.5-1.5s0.7-1.5,1.5-1.5h1.4l1.4-15c0.4-5.4,3.1-10.5,7.3-14l3.8-3.1h7.3l3.8,3.1  c4.2,3.4,6.9,8.5,7.3,14l0.3,2.7c0.9,0.5,1.7,1.3,2.2,2.2l-0.5-5.1c-0.5-6-3.4-11.6-8-15.3L35,21.2c0.7-0.6,1.1-1.4,1.1-2.3  c0-1.2-0.7-2.2-1.7-2.7c0.8-2.2,2.9-4.7,6.4-7.5l1.2-1l-6.4-3.2L36.5,2h-15l1.1,2.6l-6.4,3.2l1.2,1c3.4,2.9,5.6,5.4,6.4,7.5  c-1,0.5-1.8,1.5-1.8,2.7c0,0.9,0.4,1.7,1.1,2.3l-2.8,2.3c-4.6,3.8-7.5,9.4-8,15.3L11.1,52C9.3,52.2,8,53.7,8,55.5  c0,1.9,1.6,3.5,3.5,3.5h25.9L38.8,57z M33,20h-8c-0.6,0-1-0.4-1-1s0.4-1,1-1h8c0.6,0,1,0.4,1,1S33.6,20,33,20z M19.8,8.2l3.6-1.8  l1.7,4l1.8-0.8L24.5,4h9l-2.4,5.6l1.8,0.8l1.7-4l3.6,1.8C35,11,33,13.6,32.2,16h-6.5C25,13.7,23.1,11.1,19.8,8.2z"/><rect x="45" y="39.8" transform="matrix(-0.8194 -0.5733 0.5733 -0.8194 53.8779 120.9831)" width="2" height="24.4"/></svg>