<svg xmlns="http://www.w3.org/2000/svg" xmlns:xlink="http://www.w3.org/1999/xlink" version="1.1" x="0px" y="0px" viewBox="0 0 52 65" style="enable-background:new 0 0 52 52;" xml:space="preserve"><style type="text/css">
	.st0{fill:none;stroke:#000000;stroke-width:2;stroke-linecap:round;stroke-linejoin:round;stroke-miterlimit:10;}
</style><g><g><g><path d="M29.5332031,46.5527344c-0.1914063,0-0.3837891-0.0546875-0.5527344-0.1669922L24.8232422,43.625     c-0.2460938-0.1630859-0.4072266-0.4257813-0.4404297-0.71875c-0.0341797-0.2929688,0.0634766-0.5849609,0.2646484-0.7998047     C32.5429688,33.71875,39.2861328,23.4960938,44.6875,11.7226563c0.1220703-0.265625,0.3544922-0.4648438,0.6357422-0.5449219     c0.2802734-0.0800781,0.5830078-0.0332031,0.8271484,0.1289063l4.1679688,2.7705078     c0.4072266,0.2705078,0.5585938,0.7958984,0.359375,1.2421875C45.2832031,27.3603516,38.4111328,37.765625,30.2539063,46.2460938     C30.0595703,46.4482422,29.796875,46.5527344,29.5332031,46.5527344z M26.9101563,42.6103516l2.4775391,1.6455078     c7.5732422-8.0195313,13.9990234-17.7617188,19.1162109-28.9833984l-2.4902344-1.6552734     C40.7919922,24.7441406,34.3720703,34.4882813,26.9101563,42.6103516z"/></g><g><path d="M25.3759766,43.7919922c-0.1923828,0-0.3847656-0.0546875-0.5537109-0.1679688l-14.90625-9.9199219     c-0.2451172-0.1630859-0.40625-0.4257813-0.4394531-0.7177734c-0.0341797-0.2929688,0.0634766-0.5849609,0.2646484-0.7998047     c8.3613281-8.8798828,15.1044922-19.0908203,20.0439453-30.3486328c0.1191406-0.2705078,0.3515625-0.4746094,0.6347656-0.5585938     c0.28125-0.0791016,0.5888672-0.0361328,0.8349609,0.1269531l14.8955078,9.9003906     c0.4101563,0.2724609,0.5605469,0.8027344,0.3554688,1.25c-5.4931641,11.9707031-12.3574219,22.3740234-20.4013672,30.9208984     C25.9091797,43.6845703,25.6435547,43.7919922,25.3759766,43.7919922z M12.0039063,32.6923828l13.2197266,8.796875     c7.4746094-8.0830078,13.8984375-17.8300781,19.1054688-28.9912109L31.1337891,3.7275391     C26.3115234,14.4042969,19.8828125,24.1386719,12.0039063,32.6923828z"/></g><g><path d="M7.6816406,50.7607422c-0.4355469,0-0.8613281-0.1279297-1.2324219-0.375l-4.2207031-2.8164063     c-1.0185547-0.6796875-1.2978516-2.0634766-0.6230469-3.0849609l8.0390625-12.1572266     c0.1464844-0.2216797,0.375-0.3759766,0.6357422-0.4287109c0.2597656-0.0488281,0.53125,0.0009766,0.7519531,0.1474609     l6.2646484,4.1660156c0.4589844,0.3056641,0.5839844,0.9238281,0.28125,1.3837891L9.5478516,49.7587891     c-0.3300781,0.4990234-0.8330078,0.8388672-1.4189453,0.9570313C7.9804688,50.7460938,7.8300781,50.7607422,7.6816406,50.7607422     z M10.7597656,34.2666016L3.2734375,45.5878906c-0.0693359,0.1044922-0.0400391,0.2470703,0.0644531,0.3173828     l4.2207031,2.8164063c0.0644531,0.0429688,0.1269531,0.0429688,0.1738281,0.0341797     c0.0419922-0.0087891,0.1025391-0.0332031,0.1464844-0.0986328l7.4804688-11.3310547L10.7597656,34.2666016z"/></g></g><g><path d="M33.8212891,15.5009766c-0.6445313,0-1.2753906-0.1894531-1.8251953-0.5546875    c-1.5214844-1.0126953-1.9404297-3.078125-0.9326172-4.6054688c0.4882813-0.7392578,1.2363281-1.2431641,2.1064453-1.4199219    c0.8720703-0.1777344,1.7548828-0.0058594,2.4921875,0.484375l0,0c1.5214844,1.0117188,1.9404297,3.0771484,0.9326172,4.6044922    c-0.4912109,0.7421875-1.2392578,1.2480469-2.109375,1.4238281    C34.2646484,15.4785156,34.0419922,15.5009766,33.8212891,15.5009766z M33.8349609,10.8535156    c-0.0878906,0-0.1777344,0.0087891-0.2666016,0.0273438c-0.3457031,0.0703125-0.6425781,0.2695313-0.8349609,0.5615234    c-0.4033203,0.6103516-0.2363281,1.4345703,0.3701172,1.8378906c0.2919922,0.1933594,0.6386719,0.2626953,0.984375,0.1933594    c0.3447266-0.0703125,0.6425781-0.2705078,0.8378906-0.5664063c0.4013672-0.6083984,0.2353516-1.4326172-0.3710938-1.8359375    C34.3388672,10.9277344,34.0908203,10.8535156,33.8349609,10.8535156z"/></g></g><text x="0" y="67" fill="#000000" font-size="5px" font-weight="bold" font-family="'Helvetica Neue', Helvetica, Arial-Unicode, Arial, Sans-serif">Created by rivercon</text><text x="0" y="72" fill="#000000" font-size="5px" font-weight="bold" font-family="'Helvetica Neue', Helvetica, Arial-Unicode, Arial, Sans-serif">from the Noun Project</text></svg>