<svg xmlns="http://www.w3.org/2000/svg" xmlns:xlink="http://www.w3.org/1999/xlink" version="1.1" x="0px" y="0px" viewBox="0 0 100 125" style="enable-background:new 0 0 100 100;" xml:space="preserve"><g><path d="M73.1,28.4c0-8.8-5.2-17-13.2-20.8c-0.3-0.1-0.7-0.1-1,0.1c-0.3,0.2-0.5,0.5-0.5,0.8v16.7H41.5V8.4c0-0.3-0.2-0.7-0.5-0.8   c-0.3-0.2-0.7-0.2-1-0.1c-8,3.8-13.2,12-13.2,20.8c0,8.6,4.9,16.6,12.6,20.5v33.2c0,5.8,4.7,10.5,10.5,10.5   c5.8,0,10.5-4.7,10.5-10.5l0-33.2C68.1,45,73.1,37,73.1,28.4z M59,47.4c-0.3,0.2-0.6,0.5-0.6,0.9l0,33.8c0,4.7-3.8,8.5-8.5,8.5   c-4.7,0-8.5-3.8-8.5-8.5V48.3c0-0.4-0.2-0.7-0.6-0.9c-7.3-3.5-12.1-10.9-12.1-19c0-7.5,4.1-14.5,10.6-18.3v16.1c0,0.6,0.4,1,1,1   h18.9c0.6,0,1-0.4,1-1V10.1c6.5,3.7,10.6,10.7,10.6,18.3C71.1,36.4,66.3,43.9,59,47.4z"/></g><text x="0" y="115" fill="#000000" font-size="5px" font-weight="bold" font-family="'Helvetica Neue', Helvetica, Arial-Unicode, Arial, Sans-serif">Created by Noah</text><text x="0" y="120" fill="#000000" font-size="5px" font-weight="bold" font-family="'Helvetica Neue', Helvetica, Arial-Unicode, Arial, Sans-serif">from the Noun Project</text></svg>