<svg xmlns="http://www.w3.org/2000/svg" xmlns:xlink="http://www.w3.org/1999/xlink" version="1.1" x="0px" y="0px" viewBox="0 0 90 112.5" enable-background="new 0 0 90 90" xml:space="preserve"><path fill="#000000" d="M46,85.654L9,64.81V23.056L46,2.211l37,20.845V64.81L46,85.654z M12,63.056l34,19.155l34-19.155V24.81  L46,5.654L12,24.81V63.056z"/><rect x="56.647" y="29.926" transform="matrix(0.6635 0.7482 -0.7482 0.6635 43.8398 -34.791)" fill="#000000" width="7.905" height="2.835"/><path fill="#000000" d="M73.158,34.5L62.677,22H42.826l-7.462,9h-7.848l-9.078,10.5L27.516,52h16.935l4.323-5h13.902L73.158,34.5z   M43.079,49H28.888l-3.526-4.078l7.122-8.42l-2.164-1.83l-6.835,8.08L22.404,41.5l6.484-7.5h14.191l6.484,7.5L43.079,49z M51.369,44  l2.162-2.5L44.451,31h-5.19l4.975-6h17.041l7.966,9.5L61.276,44H51.369z"/><path fill="#000000" d="M64.953,51H52.881l-6.707,7.5l6.707,7.5h12.072l6.707-7.5L64.953,51z M63.611,63h-9.389l-4.023-4.5  l4.023-4.5h9.389l1.788,2H60v3h7.188L63.611,63z"/></svg>