<svg height="480pt" viewBox="-192 0 480 480" width="480pt" xmlns="http://www.w3.org/2000/svg"><path d="m92.441406 174.65625c2.222656-1.484375 3.558594-3.980469 3.558594-6.65625v-160c0-4.417969-3.582031-8-8-8h-80c-4.417969 0-8 3.582031-8 8v160c0 2.675781 1.335938 5.171875 3.558594 6.65625l20.441406 13.625v104.253906c-15.046875 13.960938-24 38.664063-24 67.464844 0 70.265625 2.296875 120 32 120h32c29.703125 0 32-49.734375 32-120 0-28.800781-8.953125-53.503906-24-67.464844v-104.253906zm-14.410156-158.65625c-6.226562 10.535156-17.816406 16.710938-30.03125 16-12.214844.710938-23.804688-5.464844-30.03125-16zm-62.03125 21.726562c19.136719 13.695313 44.863281 13.695313 64 0v125.992188l-20.441406 13.601562c-.214844.144532-.328125.375-.527344.535157-.425781.34375-.816406.734375-1.160156 1.160156-.300782.386719-.570313.800781-.800782 1.230469-.234374.445312-.425781.910156-.566406 1.394531-.160156.519531-.269531 1.054687-.320312 1.597656 0 .257813-.152344.488281-.152344.753907v104.007812h-16.03125v-104c0-.265625-.128906-.496094-.152344-.753906-.050781-.539063-.160156-1.078125-.320312-1.597656-.140625-.484376-.332032-.949219-.566406-1.390626-.230469-.433593-.5-.847656-.800782-1.234374-.34375-.425782-.734375-.816407-1.160156-1.160157-.199219-.160156-.3125-.390625-.527344-.535156l-20.472656-13.609375zm48 426.273438h-32c-14.832031 0-15.910156-60.296875-16-96h64c-.089844 35.703125-1.167969 96-16 96zm15.6875-112h-63.375c.144531-17.773438 6.84375-34.863281 18.816406-48h25.742188c11.972656 13.136719 18.671875 30.226562 18.816406 48zm0 0"/></svg>